<?xml version="1.0" encoding="UTF-8"?>
<svg id="Ebene_1" xmlns="http://www.w3.org/2000/svg" version="1.1" viewBox="0 0 524.522 120.911">
  <!-- Generator: Adobe Illustrator 30.4.0, SVG Export Plug-In . SVG Version: 2.1.4 Build 226)  -->
  <g>
    <path d="M131.273,105.895c-1.217,0-2.307-.189-3.27-.57-.963-.38-1.786-.938-2.471-1.672-.685-.735-1.208-1.639-1.571-2.712s-.545-2.302-.545-3.688c0-1.978.346-3.611,1.039-4.904.692-1.293,1.643-2.264,2.852-2.915,1.207-.649,2.572-.976,4.093-.976,1.183,0,2.256.19,3.219.57.963.381,1.786.938,2.471,1.673s1.212,1.647,1.584,2.737c.371,1.09.558,2.336.558,3.738,0,1.437-.187,2.695-.558,3.776-.372,1.081-.908,1.989-1.609,2.725-.701.734-1.542,1.288-2.521,1.659-.98.372-2.07.558-3.27.558ZM131.374,102.981c.896,0,1.647-.22,2.256-.659.607-.439,1.072-1.072,1.394-1.9.32-.828.481-1.842.481-3.042,0-1.25-.165-2.314-.494-3.193-.329-.878-.807-1.55-1.432-2.015-.626-.464-1.386-.696-2.281-.696-.879,0-1.626.224-2.243.671-.617.448-1.09,1.095-1.419,1.939s-.494,1.893-.494,3.143c0,.912.097,1.728.291,2.445.194.719.469,1.322.824,1.812.354.49.794.861,1.317,1.115.523.253,1.124.38,1.8.38Z" fill="#3D6DC9"/>
    <path d="M144.223,105.54v-16.727h4.765l7.578,11.835h.278l-.228-11.835h3.548v16.727h-4.309l-8.009-12.394h-.278l.228,12.394h-3.573Z" fill="#3D6DC9"/>
    <path d="M165.765,105.54v-16.727h3.675v16.727h-3.675ZM168.299,91.753v-2.939h10.315v2.939h-10.315ZM168.299,98.444v-2.711h9.099v2.711h-9.099ZM168.299,105.54v-2.965h10.366v2.965h-10.366Z" fill="#3D6DC9"/>
    <path d="M191.134,105.54v-16.727h3.649v16.727h-3.649ZM192.882,91.931v-3.117h10.695v3.117h-10.695ZM192.882,99.28v-2.99h9.758v2.99h-9.758Z" fill="#3D6DC9"/>
    <path d="M208.063,105.54v-16.727h3.726v16.727h-3.726Z" fill="#3D6DC9"/>
    <path d="M217.39,105.54v-16.727h4.765l7.577,11.835h.279l-.229-11.835h3.549v16.727h-4.309l-8.009-12.394h-.279l.229,12.394h-3.573Z" fill="#3D6DC9"/>
    <path d="M237.537,105.54l5.729-16.727h5.321l5.729,16.727h-3.954l-4.232-13.838h-.38l-4.258,13.838h-3.954ZM240.756,102.245v-2.483h10.873v2.483h-10.873Z" fill="#3D6DC9"/>
    <path d="M258.523,105.54v-16.727h4.765l7.577,11.835h.279l-.229-11.835h3.548v16.727h-4.309l-8.008-12.394h-.279l.229,12.394h-3.573Z" fill="#3D6DC9"/>
    <path d="M287.743,105.895c-1.302,0-2.463-.182-3.484-.545-1.022-.362-1.893-.903-2.61-1.622-.719-.718-1.264-1.609-1.635-2.674-.372-1.063-.558-2.297-.558-3.7,0-1.419.189-2.678.57-3.775.38-1.099.929-2.032,1.646-2.801.719-.769,1.567-1.348,2.548-1.736.979-.389,2.069-.583,3.269-.583.93,0,1.791.123,2.586.368.794.245,1.478.595,2.053,1.052.574.456,1.026,1.014,1.355,1.672.329.659.503,1.403.52,2.23l-3.37.888c0-.71-.157-1.301-.47-1.774-.312-.473-.718-.832-1.216-1.077-.499-.245-1.026-.367-1.584-.367-.49,0-.976.097-1.458.291-.481.194-.921.516-1.317.963-.397.448-.719,1.035-.963,1.762-.245.727-.368,1.613-.368,2.661,0,1.368.199,2.476.596,3.32.397.845.942,1.466,1.635,1.862.692.397,1.47.596,2.332.596.929,0,1.651-.19,2.167-.57.515-.38.887-.87,1.115-1.47.228-.6.35-1.237.367-1.914l3.193.532c-.018.896-.152,1.736-.405,2.522-.254.785-.651,1.47-1.191,2.053-.541.583-1.251,1.035-2.129,1.355-.879.321-1.943.481-3.193.481Z" fill="#3D6DC9"/>
    <path d="M299.198,105.54v-16.727h3.676v16.727h-3.676ZM301.734,91.753v-2.939h10.314v2.939h-10.314ZM301.734,98.444v-2.711h9.098v2.711h-9.098ZM301.734,105.54v-2.965h10.365v2.965h-10.365Z" fill="#3D6DC9"/>
    <path d="M331.182,105.895c-1.368,0-2.598-.316-3.688-.95s-1.951-1.579-2.585-2.839c-.634-1.258-.95-2.842-.95-4.752,0-1.401.181-2.647.545-3.737.362-1.09.895-2.02,1.597-2.788.7-.769,1.566-1.356,2.598-1.762,1.03-.405,2.222-.608,3.573-.608,1.014,0,1.935.119,2.763.355.827.236,1.546.574,2.154,1.014.607.439,1.085.967,1.432,1.584.346.617.536,1.313.57,2.091l-3.447,1.064c-.034-.71-.215-1.293-.545-1.749-.329-.456-.76-.798-1.292-1.026s-1.128-.342-1.787-.342c-.912,0-1.694.207-2.344.62-.651.415-1.146,1.048-1.483,1.901s-.507,1.931-.507,3.231c0,.997.098,1.854.292,2.572s.485,1.313.874,1.787c.389.473.854.823,1.395,1.052.54.228,1.165.342,1.875.342.743,0,1.39-.122,1.938-.367s.988-.625,1.318-1.141c.329-.516.511-1.17.545-1.965h-3.168v-2.636h6.767v8.693h-2.534l.051-4.283h-.456c-.271,1.014-.634,1.863-1.09,2.547-.456.685-1.044,1.204-1.762,1.559-.719.355-1.601.532-2.648.532Z" fill="#3D6DC9"/>
    <path d="M344.74,105.54v-16.727h5.5l4.663,12.596h.127l4.562-12.596h5.246v16.727h-3.472l.229-13.026h-.279l-5.068,13.026h-3.042l-4.992-13.026h-.279l.229,13.026h-3.422Z" fill="#3D6DC9"/>
    <path d="M370.439,105.54v-16.727h6.944c1.03,0,1.952.088,2.763.266.812.178,1.508.443,2.091.799.583.354,1.03.815,1.344,1.381.312.566.469,1.238.469,2.015,0,.659-.14,1.233-.418,1.724-.279.49-.71.887-1.293,1.191-.583.304-1.348.516-2.294.633v.381c1.605.118,2.784.52,3.536,1.203.751.685,1.128,1.602,1.128,2.75,0,.963-.25,1.771-.748,2.421-.499.65-1.246,1.141-2.243,1.47s-2.23.494-3.7.494h-7.578ZM373.911,95.909h2.737c1.317,0,2.284-.181,2.901-.545.617-.363.926-.899.926-1.609s-.279-1.229-.837-1.559c-.558-.329-1.411-.494-2.56-.494h-3.168v4.207ZM373.911,102.601h4.055c1.081,0,1.884-.165,2.408-.495.523-.329.785-.84.785-1.533,0-.794-.329-1.39-.988-1.786-.659-.397-1.656-.596-2.99-.596h-3.27v4.41Z" fill="#3D6DC9"/>
    <path d="M389.65,105.54v-16.727h3.65v16.727h-3.65ZM391.804,98.57v-2.99h10.265v2.99h-10.265ZM400.624,105.54v-16.727h3.624v16.727h-3.624Z" fill="#3D6DC9"/>
  </g>
  <g>
    <path d="M123.229,62.511v-4.416h15.073v6.721c0,2.688,2.208,4.32,4.513,4.32,2.784,0,4.224-1.536,4.224-4.32v-4.993c0-3.456-1.92-5.377-5.76-5.665-10.753-.672-19.106-5.664-19.106-16.898v-3.744c0-10.945,8.257-18.145,19.49-18.145,10.945,0,19.49,7.489,19.49,18.145v4.705h-15.073v-6.913c0-2.784-2.113-4.416-4.416-4.416-2.592,0-4.321,1.632-4.321,4.416v4.609c0,4.32,2.401,5.856,7.393,6.145,10.081.384,17.473,5.28,17.473,15.745v4.8c0,10.657-8.257,18.05-19.97,18.05-11.233,0-19.009-7.68-19.009-18.145Z" fill="#3D6DC9"/>
    <path d="M168.926,16.331h14.977v13.249c0,1.248-.672,1.824-2.496,1.248l-9.889-3.072v.672l8.257,3.84c2.688,1.248,4.128,3.072,4.128,7.105v40.323h-14.977V16.331Z" fill="#3D6DC9"/>
    <path d="M190.623,16.331h14.977v49.925h13.249v13.441h-28.226V16.331Z" fill="#3D6DC9"/>
    <path d="M216.928,16.331h15.457l5.089,45.7h1.248l5.665-45.7h15.457l-11.713,63.366h-19.585l-11.617-63.366Z" fill="#3D6DC9"/>
    <path d="M266.561,16.331h31.779v13.441h-16.802v12.097h14.018v12.098h-14.018v12.289h16.802v13.441h-31.779V16.331Z" fill="#3D6DC9"/>
    <path d="M305.058,16.331h21.314c12.385,0,17.569,6.24,17.665,17.281.096,9.697-2.976,15.937-13.345,16.514l-.096.576c11.233,0,12.481,4.993,12.481,13.442v15.553h-15.073v-17.473c0-4.512-.864-6.817-4.32-6.817h-3.649v24.29h-14.977V16.331ZM323.587,45.709c3.744,0,4.513-2.016,4.513-8.833,0-6.048-.576-9.025-4.321-9.025h-3.744v17.858h3.552Z" fill="#3D6DC9"/>
    <path d="M389.735,32.652c0,9.697-3.168,13.921-13.345,14.689v.576c10.081.96,13.249,4.225,13.345,14.498.097,10.08-6.24,17.281-17.666,17.281h-21.313V16.331h21.313c11.426,0,17.666,7.201,17.666,16.321ZM369.477,42.541c4.224,0,4.321-3.744,4.321-7.584,0-4.128-.576-7.105-4.321-7.105h-3.744v14.689h3.744ZM369.477,68.175c3.744,0,4.321-2.975,4.321-7.104,0-5.761-.576-8.545-4.416-8.545h-3.649v15.648h3.744Z" fill="#3D6DC9"/>
    <path d="M403.461,16.331h21.506l9.601,63.366h-15.457l-1.824-13.057h-6.817l-1.441,13.057h-15.457l9.889-63.366ZM416.902,56.079l-2.4-24.002h-1.152l-2.112,24.002h5.664Z" fill="#3D6DC9"/>
    <path d="M439.366,62.511v-28.995c0-10.849,9.024-18.145,19.97-18.145,10.464,0,18.913,7.297,18.913,18.145v8.353h-14.977v-10.753c0-2.688-1.921-4.224-4.224-4.224-2.4,0-4.513,1.536-4.513,4.224v33.7c0,2.688,2.016,4.416,4.416,4.416,2.304,0,4.225-1.537,4.225-4.321v-11.905h15.073v9.505c0,10.849-8.449,18.145-18.913,18.145-10.946,0-19.97-7.296-19.97-18.145Z" fill="#3D6DC9"/>
    <path d="M484.968,16.331h14.976v27.362h.769l7.489-27.362h16.321l-9.504,26.786c-1.825,4.992-4.609,5.184-5.281,5.184v.384c.576.096,3.84.192,5.281,4.705l8.545,26.306h-16.226l-6.624-26.786h-.769v26.786h-14.976V16.331Z" fill="#3D6DC9"/>
  </g>
  <g id="ivyFvD.tif">
    <g>
      <path d="M33.58,30.757c-2.059-6.954-9.027-9.472-9.873-7.231-.25.661.093,1.77.809,1.979,3.003.875,5.134,2.953,6.074,5.934.815,2.586,1.922,5.025,3.812,7.021,3.983,4.207,9.885,4.994,13.273,9.183,3.295,4.075,5.064,9.011,5.116,14.263l.127,12.794c-5.344,1.817-10.75-1.353-11.78-6.826-.958-5.09.699-10.406-2.513-15.713-2.565-4.237-6.965-6.86-11.852-7.538-.373-.052-.856-.119-1.073-.221s-.287-.736-.268-1.003c.344-5.066-2.868-9.239-7.786-10.444-2.297-.563-4.606-.359-7.133.245-1.921-3.983-1.571-8.65.822-12.373,2.587-4.025,6.807-6.286,11.591-6.492.776-.033,1.596-.237,2.397-.525.328-8.337,7.47-14.36,15.765-13.334,5.976.774,10.763,5.145,11.803,11.125l.156,26.669c-2.045-1.611-3.874-2.894-6.105-3.885-1.264-.561-2.486-1.192-3.626-1.94-4.293-2.817-3.166-7.379-2.327-12.091.467-2.621.732-6.034-.893-6.581-.473-.159-1.698.096-1.735.584l-.433,5.741c-.176,2.335-.869,4.55-.79,6.875.117,3.43,1.757,6.274,4.573,8.123,3.552,2.331,9.591,3.96,11.013,8.02.692,1.976.215,4.261.177,6.575-2.404-4.004-5.396-7.064-9.589-9.028-5.044-2.363-8.076-4.321-9.73-9.905Z" fill="#3D6DC9"/>
      <path d="M25.177,94.638c-1.111.086-1.635.635-1.609,1.571.081,2.954,8.355-1.051,11.79,5.589,1.029,1.988,2.257,3.621,4.232,4.769,4.084,2.373,8.827,2.819,13.401,1.305.019,1.883-.365,3.421-1.187,5.018-3.081,5.986-10.017,9.274-16.604,7.33-3.911-1.154-6.915-4.181-8.72-7.72-1.393-2.73-.832-5.507-1.351-5.639l-.972-.248c-7.857.255-14.434-5.632-14.83-13.476-.109-2.817.753-5.23,1.927-7.914-5.143-1.35-8.922-5.215-10.424-9.625-1.861-5.461-.519-11.099,3.336-15.06,2.962,2.729,6.131,4.184,9.945,4.528.363.312.456,1.054.327,1.561-.956,3.767.253,7.559,3.058,9.997,2.773,2.411,6.694,2.91,10.404,1.544.747,4.517,3.232,8.073,6.919,10.389,6.085,3.822,12.658,2.366,18.075-2.741l.112,18.393c-3.895,2.135-8.619,2.117-12.225-.434-2.436-1.723-3.625-6.758-8.409-8.485-2.259-.815-4.697-.848-7.195-.655Z" fill="#3D6DC9"/>
      <path d="M52.71,80.878c-2.902,4.952-8.582,8.123-13.877,6.312-4.695-1.607-7.922-6.177-8.014-11.09-.019-1.017-.384-2.39-1.533-2.341-1.43.789-2.917,1.801-4.531,2.08-3.798.657-6.926-1.826-7.479-5.529-.518-3.464,1.288-6.655,4.685-7.738,3.336-1.064,5.796-.049,6.487-1.461.228-.466.131-1.55-.401-1.719-3.152-1.006-6.398-.401-9.164,1.271-1.492.902-2.779,1.054-4.488,1.012-4.117-.101-7.817-1.839-10.031-5.418-2.343-3.786-2.825-8.379-1.118-12.579,2.656-6.535,10.674-9.937,16.185-6.698,2.358,1.385,3.629,4.264,2.557,6.912-.926,2.287-8.546,3.068-6.83,6.003.863,1.477,3.544-.762,7.142-1.763,4.85-1.35,9.63.393,12.743,4.219,1.592,1.957,2.599,4.043,2.661,6.671l.183,7.687c.068,2.863,1.263,5.209,3.064,7.238,3.049,3.436,7.153,4.919,11.945,4.042.167.788.246,2.151-.187,2.89Z" fill="#3D6DC9"/>
    </g>
  </g>
  <path d="M101.186,92.9c-.083,8.715-6.941,14.417-15.731,14.337-.201,7.296-6.747,13.37-13.963,13.665-6.59.27-13.479-5.399-13.835-10.777-.406-6.128-.4-11.958-.405-18.112l-.055-66.572c-.004-4.824-.145-9.335.378-14.059.627-5.672,5.721-10.032,10.782-11.084,8.055-1.674,15.884,3.9,17.098,12.238,5.628-.439,10.765,2.3,13.535,6.811,2.976,4.847,2.875,10.752-.161,15.541,6.805,3.435,10.889,10.17,9.245,17.749-.545,2.515-1.645,4.673-3.045,6.882,3.756,3.308,5.883,7.754,5.375,12.717-.454,4.439-2.985,8.9-7.287,11.009l-4.105,2.013c1.673,2.468,2.199,4.887,2.173,7.642ZM72.543,46.119c.508.205,1.244.46,1.589.458l13.873-.107c.835-2.648,3.157-4.177,5.618-3.999,2.606.188,4.627,2.132,4.993,4.525.406,2.653-.97,5.088-3.473,6.045-2.936,1.122-5.962-.236-7.027-3.302l-27.908-.101.002,8.134,41.833.118c2.8-2.842,3.757-6.707,3.023-10.513-.923-4.789-4.121-8.461-8.724-10.006-.522-.175-1.174-.914-1.306-1.362-.138-.469.176-1.434.518-1.857,3.725-4.609,3.344-10.928-.766-15.107-1.823-1.854-4-3.143-6.703-3.247l-3.858-.148c-1.211-.046-1.82-.804-1.873-1.985-.223-4.931-3.436-8.953-8.273-10.168-6.195-1.689-12.63,2.36-13.801,8.717l-.074,34.427,9.22-.1.074-10.248c-2.427-.876-3.789-3.076-3.711-5.448.073-2.213,1.562-4.042,3.707-5.054l-.028-6.853c-3.223-1.326-4.704-5.036-2.987-8.06,1.142-2.01,3.341-2.902,5.483-2.583,1.98.295,3.873,1.662,4.448,3.793.792,2.939-.968,5.948-3.732,6.896l.032,6.672c1.491.631,2.5,1.619,3.438,2.826,1.98-.371,3.855-1.5,5.532-2.76.442-3.115,3.123-5.011,6.204-4.556,2.667.394,4.455,2.49,4.605,4.938.157,2.557-1.392,4.779-3.583,5.543-2.557.892-4.871-.136-6.545-2.315-1.987.814-4.035,1.69-5.697,2.801-.935,1.841-1.79,3.645-3.973,4.186l-.15,9.799ZM70.585,11.275c-1.395.383-2.13,1.764-1.782,2.99.386,1.361,1.718,2.067,3.004,1.698,1.333-.383,2.048-1.689,1.659-3.038-.343-1.186-1.531-2.021-2.881-1.65ZM86.903,28.906c1.607.28,2.749-1.262,2.656-2.57-.113-1.587-1.635-2.529-3.164-2.131-1.203.313-1.878,1.459-1.728,2.515.157,1.104.921,1.957,2.236,2.186ZM70.256,28.777c-1.505.639-1.803,2.19-1.327,3.336.526,1.268,1.864,1.674,3.091,1.254,1.328-.454,1.817-1.914,1.367-3.184-.406-1.147-1.816-1.965-3.13-1.407ZM92.961,45.472c-1.528.263-2.23,1.672-1.964,2.981.245,1.2,1.417,2.008,2.803,1.754,1.157-.212,2.119-1.402,1.856-2.805-.202-1.074-1.253-2.179-2.695-1.93ZM69.883,112.405c-2.161-.606-3.523-2.408-4.006-4.417-.663-2.757.816-5.297,3.619-6.12l-.082-13.875c-2.164-1.103-3.704-3.15-3.645-5.562.054-2.208,1.586-4.337,3.72-5.141l.013-5.209h-9.302s.054,36.403.054,36.403c1.061,6.152,6.837,10.117,13.015,9.092,5.456-1.178,9.311-6.089,9.175-11.704-.072-2.954,3.913-1.309,8.111-2.698,3.68-1.217,6.55-4.068,7.369-7.866.748-3.467-.221-6.8-2.299-9.624-.406-.551-.602-1.716-.242-2.257,1.091-1.638,5.894-1.156,9.637-5.945,4.145-5.304,2.832-12.734-2.985-16.174l-5.16-.341-36.666-.006-.013,7.949,30.802-.008c1.101-2.761,3.834-4.345,6.701-3.511,2.57.748,4.265,3.259,3.899,6.171-.333,2.64-2.512,4.403-5.079,4.579s-4.812-1.422-5.572-4.058l-18.26.004-.007,5.187c4.265,1.486,3.331,5.066,5.049,6.483l5.924,4.885c1.718-1.004,3.43-1.67,5.425-.874,1.403.56,2.827,1.826,3.317,3.653.879,3.278-1.061,6.474-4.416,6.998-2.933.458-6.003-1.708-6.194-4.999l-.131-2.246-5.083-4.391c-.75-.648-1.351-.366-2.072.066l-1.767,1.058-.058,13.912c2.445.566,3.918,2.615,3.882,5.103-.026,1.758-.743,3.372-1.934,4.365-1.268,1.057-2.993,1.611-4.737,1.121ZM98.643,71.049c.187-1.455-.634-2.453-1.663-2.673-1.059-.226-2.17.123-2.762,1.02-.534.809-.418,2.035.263,2.904.641.818,1.641,1.099,2.644.774.642-.208,1.401-1.118,1.517-2.025ZM70.74,80.139c-1.536.28-2.223,1.751-1.954,2.995.28,1.295,1.495,2.008,2.83,1.776,1.259-.219,2.211-1.395,1.883-2.888-.222-1.01-1.367-2.136-2.758-1.883ZM86.327,90.719c-1.444.491-1.864,2.069-1.274,3.313.511,1.078,1.815,1.64,2.971,1.185,1.22-.48,1.898-1.893,1.464-3.018-.503-1.304-1.665-1.988-3.161-1.479ZM70.509,104.791c-1.499.431-2.131,1.954-1.665,3.139.477,1.214,1.729,1.882,3,1.542,1.303-.349,2.027-1.63,1.609-3.062-.305-1.044-1.568-2.014-2.943-1.619Z" fill="#3D6DC9"/>
</svg>